<svg width="72" height="34" viewBox="0 0 72 34" fill="none" xmlns="http://www.w3.org/2000/svg">
<path d="M0 0V34C18.4085 29.1908 40.1936 26.3947 63.6127 26.3947C66.4448 26.3947 69.1679 26.3947 72 26.3947V0H0ZM25.3797 20.9145H22.3298C21.7852 20.9145 21.1316 20.8026 20.4781 19.9079L15.6853 13.3092V19.5724C15.6853 20.2434 15.1407 20.8026 14.4871 20.8026H11.764C11.1104 20.8026 10.5658 20.2434 10.5658 19.5724V6.59868C10.5658 5.92763 11.1104 5.36842 11.764 5.36842H14.4871C15.1407 5.36842 15.6853 5.92763 15.6853 6.59868V11.7434L20.3691 6.15132C20.8048 5.48026 21.2405 5.36842 21.7852 5.36842H24.7262C25.5976 5.36842 25.9244 6.15132 25.3797 6.82237L20.6959 12.3026L26.0333 19.3487C26.5779 20.2434 26.1422 20.9145 25.3797 20.9145ZM43.1346 20.9145H40.0847C39.5401 20.9145 38.8865 20.8026 38.233 19.9079L33.4402 13.3092V19.5724C33.4402 20.2434 32.8956 20.8026 32.2421 20.8026H29.5189C28.8654 20.8026 28.3207 20.2434 28.3207 19.5724V6.59868C28.3207 5.92763 28.8654 5.36842 29.5189 5.36842H32.2421C32.8956 5.36842 33.4402 5.92763 33.4402 6.59868V11.7434L38.1241 6.15132C38.5598 5.59211 38.9955 5.48026 39.649 5.48026H42.4811C43.3525 5.48026 43.6793 6.26316 43.1346 6.93421L38.4508 12.4145L43.7882 19.4605C44.4418 20.2434 44.0061 20.9145 43.1346 20.9145ZM61.5431 19.7961C61.5431 20.4671 60.9985 21.0263 60.3449 21.0263H57.6218C56.9682 21.0263 56.4236 20.4671 56.4236 19.7961V14.7632H51.3041V19.7961C51.3041 20.4671 50.7595 21.0263 50.1059 21.0263H47.3828C46.7292 21.0263 46.1846 20.4671 46.1846 19.7961V6.59868C46.1846 5.92763 46.7292 5.36842 47.3828 5.36842H50.1059C50.7595 5.36842 51.3041 5.92763 51.3041 6.59868V10.7368H56.4236V6.59868C56.4236 5.92763 56.9682 5.36842 57.6218 5.36842H60.3449C60.9985 5.36842 61.5431 5.92763 61.5431 6.59868V19.7961Z" fill="#082E79"/>
</svg>
